<svg width="58" height="58" viewBox="0 0 58 58" fill="none" xmlns="http://www.w3.org/2000/svg">
<path d="M43.5 36.25C41.4983 36.25 39.875 37.8733 39.875 39.875V50.75H7.25V18.125H18.125C20.1267 18.125 21.75 16.5028 21.75 14.5C21.75 12.4972 20.1267 10.875 18.125 10.875H7.25C3.24551 10.875 0 14.1205 0 18.125V50.75C0 54.7534 3.24551 58 7.25 58H39.875C43.8795 58 47.125 54.7534 47.125 50.75V39.875C47.125 37.8699 45.5051 36.25 43.5 36.25ZM56.9352 1.06111C56.2781 0.40532 55.3719 0 54.375 0H36.25C34.2483 0 32.727 1.62219 32.727 3.52305C32.727 5.52473 34.3491 7.04609 36.3508 7.04609H45.7248L20.2434 32.9309C18.8273 34.3469 18.8273 36.642 20.2434 38.058C21.6594 39.4785 23.959 39.4785 25.375 38.0625L50.75 12.3703V21.75C50.75 23.7517 52.3733 25.273 54.273 25.273C56.1728 25.273 58 23.7551 58 21.75V3.52305C58 2.62359 57.5922 1.71734 56.9352 1.06111Z" fill="#D6A007"/>
</svg>
