<svg width="90" height="90" viewBox="0 0 90 90" fill="none" xmlns="http://www.w3.org/2000/svg">
<rect x="1.5" y="1.5" width="87" height="87" rx="43.5" fill="#00233B" stroke="#D6A007" stroke-width="3"/>
<path d="M69.7918 17.2917H20.2085L24.5835 66.875L45.0002 72.7083L65.4168 66.875L69.7918 17.2917Z" fill="#0277BD"/>
<path d="M45 21.6667V68.1875L61.3333 63.5208L64.9792 21.6667H45Z" fill="#039BE5"/>
<path d="M58.2708 28.9583H45V34.7917H52.1458L51.7083 40.625H45V46.4583H51.4167L50.9792 53.0208L45 55.0625V61.1875L56.5208 57.3958L57.5417 40.625L58.2708 28.9583Z" fill="white"/>
<path d="M45.0002 28.9583V34.7917H32.021L31.5835 28.9583H45.0002ZM38.2918 40.625L38.5835 46.4583H45.0002V40.625H38.2918ZM38.8752 49.375H33.0418L33.4793 57.3958L45.0002 61.1875V55.0625L39.021 53.0208L38.8752 49.375Z" fill="#EEEEEE"/>
</svg>
