<svg width="90" height="90" viewBox="0 0 90 90" fill="none" xmlns="http://www.w3.org/2000/svg">
<rect x="1.5" y="1.5" width="87" height="87" rx="43.5" fill="#00233B" stroke="#D6A007" stroke-width="3"/>
<g clip-path="url(#clip0_0_1)">
<path d="M36.5024 83.7778C43.401 83.7778 48.9999 78.3437 48.9999 71.6482V59.5185H36.5024C29.6038 59.5185 24.0049 64.9526 24.0049 71.6482C24.0049 78.3437 29.6038 83.7778 36.5024 83.7778Z" fill="#0ACF83"/>
<path d="M24.0049 23.1296C24.0049 16.4341 29.6038 11 36.5024 11H48.9999V35.2593H36.5024C29.6038 35.2593 24.0049 29.8252 24.0049 23.1296Z" fill="#A259FF"/>
<path d="M24.0049 47.3889C24.0049 40.6933 29.6038 35.2592 36.5024 35.2592H48.9999V59.5185H36.5024C29.6038 59.5185 24.0049 54.0844 24.0049 47.3889Z" fill="#F24E1E"/>
<path d="M49 11H61.4975C68.3961 11 73.995 16.4341 73.995 23.1296C73.995 29.8252 68.3961 35.2593 61.4975 35.2593H49V11Z" fill="#FF7262"/>
<path d="M73.995 47.3889C73.995 54.0844 68.3961 59.5185 61.4975 59.5185C54.5989 59.5185 49 54.0844 49 47.3889C49 40.6933 54.5989 35.2592 61.4975 35.2592C68.3961 35.2592 73.995 40.6933 73.995 47.3889Z" fill="#1ABCFE"/>
</g>
<defs>
<clipPath id="clip0_0_1">
<rect width="50" height="72.7778" fill="white" transform="translate(24 11)"/>
</clipPath>
</defs>
</svg>
