<svg width="122" height="99" viewBox="0 0 122 99" fill="none" xmlns="http://www.w3.org/2000/svg">
<path d="M20.263 43.7402L21.6894 42.379V47.0251L22.4623 48L23.2352 47.0251V42.307L24.7307 43.7402L24.8983 47.0452L25.0533 44.0425L26.4629 45.3877L27.0578 45.4678L26.9761 44.8973L25.644 43.6341L28.9764 43.48L25.3046 43.3099L23.6122 41.6924L23.2373 41.6224V38.2974L23.8091 39.0201L24.2909 38.4195L24.3788 38.4976L24.2972 38.4115L24.5317 38.1173V37.6028L26.3603 39.3504L26.3854 39.8708L25.7361 40.5554L26.3917 39.9869L26.5237 42.5892L26.6682 39.7467L26.7227 39.7007L28.1617 41.0739L28.5471 41.1239L28.7146 41.3361L28.8508 41.166L29.0728 41.194L29.0351 40.9318L29.2697 40.6335V38.6898H29.3409L31.5486 40.6035L29.7158 38.6738L30.5997 38.6317L29.6341 38.5857L29.2697 38.2013V35.7212L29.6467 36.0835L30.03 36.1335V36.2496V36.1335L30.8218 36.2396L30.7108 35.4549L33.107 37.7449L32.9352 37.9932V40.2772L30.4636 42.8795L32.9352 40.7376V42.5392L33.2976 42.9996L33.662 42.5412V40.6315L35.9891 42.6493L33.662 40.1971V38.2734L37.0992 41.5583L38.3686 41.7265L38.1947 40.5114L34.7051 37.1784H36.8207L39.3865 39.4024L37.2836 37.1804H39.2776L39.7594 36.8321L39.2776 36.4858H37.3925L39.6337 34.1237L36.9107 36.4858H34.5208L34.2024 36.686L31.7476 34.3399L32.688 34.462L32.5791 33.7074H32.7006H32.577L32.5226 33.341L32.1456 32.9807H34.7303L35.1324 33.329L35.1806 34.2519L35.2225 33.4071L37.2438 35.1587L35.2413 33.0508V32.9807H37.2836L37.5936 32.7545L37.8679 32.7926L37.8365 32.5804L38.0167 32.4503L37.7946 32.2901L37.7402 31.9198L36.3033 30.5466L36.3536 30.4945L39.33 30.3564L36.607 30.2303L37.2019 29.6037L36.4855 30.2243L35.943 30.2003L34.1145 28.4527H34.6507L34.9565 28.2285L35.0486 28.3066L34.967 28.2225L35.5953 27.7601L34.9334 27.2837H38.3309L38.3895 27.5739L40.0798 29.1914L40.26 32.7005L40.4212 29.5177L41.7534 30.7888L42.3504 30.8669L42.2687 30.2964L40.859 28.9512L44.0009 28.805L40.5427 28.6429L39.1163 27.2837H43.9799L45 26.543L43.9799 25.8044H39.0409L40.5364 24.3731L43.9946 24.213L40.8527 24.0669L42.2624 22.7197L42.3441 22.1492L41.7471 22.2292L40.4254 23.4943L40.2641 20.3095L40.0777 23.8166L38.3874 25.4321L38.3141 25.7944H34.8413L35.5974 25.2459L34.969 24.7855L35.0507 24.6994L34.9586 24.7775L34.6444 24.5573H34.1103L35.9367 22.8157L36.4792 22.7897L37.1956 23.4163L36.6007 22.7877L39.3237 22.6616L36.3473 22.5235L36.297 22.4714L37.7339 21.0982L37.7884 20.7279L38.0104 20.5698L37.8302 20.4396L37.8617 20.2275L37.5873 20.2635L37.2836 20.0273H35.2497V19.9592L37.2521 17.8514L35.2309 19.6009L35.189 18.7562L35.1408 19.681L34.7386 20.0273H32.1456L32.5226 19.667L32.577 19.3006H32.6985H32.5791L32.688 18.544L31.8649 18.6521L34.2632 16.35L34.5208 16.5162H36.9128L39.6358 18.8763L37.3946 16.5162H39.2797L39.7615 16.1679L39.2797 15.8216H37.2836L39.397 13.5956L36.8311 15.8216H34.8203L38.2554 12.5347L38.4314 11.3216L37.1621 11.4897L33.6725 14.8227V12.8069L35.9996 10.3567L33.6725 12.3685V10.4628L33.3039 10.0044L32.9415 10.4628V12.2644L30.4699 10.1225L32.9415 12.7248V15.0088L33.151 15.3131L30.7045 17.6592L30.8322 16.7624L30.0405 16.8665V16.7504V16.8685L29.6572 16.9185L29.2802 17.2789V14.8087L29.6446 14.4243L30.6102 14.3803L29.7263 14.3383L31.5486 12.4065L29.3409 14.3202H29.2697V12.3725L29.0351 12.0763L29.0728 11.806L28.8508 11.836L28.7146 11.6659L28.5471 11.8661L28.1617 11.9181L26.7227 13.2913L26.6682 13.2453L26.5237 10.4008L26.3917 13.0031L25.7361 12.4366L26.3854 13.1212L26.3603 13.6396L24.5317 15.4092V14.8927L24.2972 14.6085L24.3788 14.5224L24.2909 14.6005L23.8091 14L23.3085 14.6085V11.3716L23.6122 11.3136L25.3046 9.69815L28.9764 9.528L25.644 9.37186L26.9761 8.10074L27.0578 7.53024L26.4629 7.60831L25.0533 8.9555L24.8983 5.95284L24.7307 9.25976L23.3085 10.621V5.97686L22.5335 5L21.7606 5.97686V10.691L20.263 9.26177L20.0954 5.95484L19.9425 8.9575L18.5329 7.6023L17.9359 7.52423L18.0197 8.09474L19.3518 9.36586L16.0194 9.522L19.6891 9.69815L21.3794 11.3136L21.7585 11.3856V14.7046L21.1825 13.9799L20.7028 14.5805L20.6128 14.5024L20.6945 14.5885L20.4641 14.8927V15.4092L18.6418 13.6577L18.6146 13.1392L19.2639 12.4546L18.6104 13.0211L18.4763 10.4188L18.3318 13.2613L18.2794 13.3093L16.8404 11.9361L16.4529 11.8841L16.2875 11.6839L16.1513 11.8541L15.9188 11.806L15.9565 12.0682L15.7219 12.3665V14.3102H15.6486L13.4472 12.4065L15.2904 14.3383L14.4044 14.3803L15.37 14.4243L15.7261 14.8087V17.2789L15.347 16.9185L14.9637 16.8685V16.7504V16.8665L14.1719 16.7624L14.285 17.5471L11.8763 15.2551L12.0501 15.0088V12.7228L14.5217 10.1205L12.0501 12.2624V10.4608L11.6857 10.0044L11.3212 10.4628V12.3685L8.99413 10.3507L11.3212 12.8069V14.7326L7.88401 11.4397L6.61469 11.2735L6.79063 12.4866L10.2802 15.8216H8.16887L5.59882 13.5956L7.70806 15.8216H5.71611L5.23646 16.1679L5.71611 16.5162H7.60124L5.35794 18.8763L8.0809 16.5162H10.4729L10.7934 16.316L13.2482 18.6561L12.3057 18.534L12.4167 19.2906H12.2973H12.4188L12.4711 19.657L12.8482 20.0173H10.2635L9.86129 19.671L9.81521 18.7461L9.77123 19.5909L7.74995 17.8514L9.75028 19.9592V20.0273H7.71644L7.40435 20.2535L7.13205 20.2134L7.16138 20.4256L6.98334 20.5557L7.19279 20.7139L7.24725 21.0842L8.68414 22.4574L8.63596 22.5095L5.65956 22.6476L8.38252 22.7737L7.80022 23.4163L8.51657 22.7937L9.05697 22.8197L10.8918 24.5573H10.3514L10.054 24.7795L9.96393 24.7014L10.0456 24.7875L9.41724 25.2479L10.054 25.7263H6.66705L6.60841 25.4341L4.91598 23.8166L4.73794 20.3075L4.57666 23.4923L3.24451 22.2152L2.64755 22.1351L2.72296 22.7117L4.13052 24.0588L0.988643 24.205L4.4468 24.3651L5.87111 25.7263H1.02006L0 26.467L1.02006 27.2056H5.9549L4.45937 28.6329L1.00121 28.795L4.14308 28.9412L2.72296 30.2883L2.64127 30.8589L3.23822 30.7808L4.57038 29.5097L4.73166 32.6925L4.9097 29.1834L6.60212 27.5659L6.67543 27.2076H10.1545L9.39839 27.7521L10.0268 28.2145L9.94508 28.2986L10.054 28.2205L10.3619 28.4447H10.8918L9.06116 30.1923L8.52076 30.2163L7.80441 29.5957L8.39509 30.2223L5.67213 30.3484L8.64853 30.4865L8.6967 30.5386L7.25982 31.9118L7.20536 32.2821L6.9959 32.4423L7.17394 32.5724L7.14462 32.7846L7.41691 32.7465L7.72901 32.9727H9.76285V33.0428L7.74995 35.1506L9.76913 33.3991L9.81312 34.2438L9.8592 33.321L10.2635 32.9727H12.8503L12.4711 33.333L12.4188 33.6994H12.2973H12.4167L12.3057 34.456L13.1267 34.3479L10.7305 36.652L10.4729 36.4858H8.0809L5.35794 34.1237L7.59914 36.4858H5.71402L5.23646 36.8281L5.71611 37.1744H7.70806L5.59882 39.4044L8.16887 37.1804H10.1839L6.73827 40.4653L6.56442 41.6784L7.83374 41.5123L11.3212 38.1773V40.1991L8.99413 42.6513L11.3212 40.6315V42.5372L11.6857 42.9956L12.0501 42.5352V40.7336L14.5217 42.8755L12.0501 40.2732V37.9932L11.8407 37.6869L14.2955 35.3408L14.1657 36.2396L14.9574 36.1335V36.2496V36.1335L15.3407 36.0835L15.7198 35.7212V38.1913L15.3533 38.5757L14.3877 38.6217L15.2737 38.6638L13.4409 40.5935L15.6465 38.6798H15.7198V40.6315L15.9544 40.9298L15.9188 41.186L16.1408 41.158L16.277 41.3281L16.4425 41.1159L16.83 41.0659L18.2689 39.6927L18.3213 39.7387L18.4658 42.5812L18.5999 39.9789L19.2534 40.5474L18.6041 39.8628L18.6313 39.3424L20.4599 37.5988V38.1093L20.6924 38.4035L20.6107 38.4896L20.7008 38.4115L21.1804 39.0121L21.6831 38.3815V41.6324L21.3773 41.6884L19.6891 43.3039L16.0173 43.474L19.3497 43.6281L18.0134 44.9013L17.9296 45.4718L18.5266 45.3917L19.9362 44.0465L20.0891 47.0492L20.263 43.7402ZM22.1481 35.2287L21.9009 35.2748V29.8219L22.0203 29.7078L22.2675 28.4948L21.5742 28.6209L21.1783 28.0604L20.4578 29.0873V29.2474L16.4152 33.1108L16.2749 32.9107L15.8246 33.5532L15.1962 33.5793L15.236 33.3791L15.0873 33.4051L15.1145 32.8726L15.7827 32.4443L15.5732 32.3081L19.6137 28.4467H19.7833L20.8558 27.7541L20.2693 27.3798L20.4054 26.7152L19.134 26.9514L19.0167 27.0655H13.3153L13.3655 26.8273L12.5738 26.9754L12.1151 26.5751L12.2889 26.465L12.1611 26.3829L12.5801 26.0266L13.3718 26.1727L13.3215 25.9365H19.0398L19.157 26.0486L20.4285 26.2848L20.286 25.6182L20.8725 25.2419L19.8001 24.5573H19.6304L15.59 20.6939L15.7994 20.5598L15.1313 20.1294L15.0998 19.5288L15.3093 19.5669L15.28 19.4247L15.8371 19.4508L16.2875 20.0893L16.4278 19.8892L20.4704 23.7526V23.9127L21.1909 24.9376L21.5868 24.3771L22.2822 24.5072L22.0329 23.2922L21.9156 23.1801V17.7272L22.1628 17.7733L22.0036 17.0106L22.4225 16.5722L22.5377 16.7364L22.6236 16.6163L22.9964 17.0166L22.8309 17.7733L23.0781 17.7272V23.1901L22.9608 23.3022L22.7136 24.5172L23.407 24.3871L23.8028 24.9476L24.5255 23.9227V23.7626L28.568 19.8992L28.7083 20.0993L29.1587 19.4608L29.7745 19.4308L29.7368 19.6309L29.8855 19.6029L29.8583 20.1354L29.188 20.5658L29.3975 20.6999L25.3549 24.5633H25.1873L24.1128 25.2539L24.7161 25.6182L24.5799 26.2808L25.8492 26.0446L25.9686 25.9325H31.6847L31.6366 26.1687L32.4283 26.0226L32.8849 26.4229L32.7132 26.533L32.8389 26.6151L32.4199 26.9714L31.6282 26.8193L31.6764 27.0575H25.9728L25.8534 26.9434L24.5841 26.7072L24.7203 27.3718L24.1317 27.7461L25.2062 28.4387H25.3738L29.4163 32.3001L29.2069 32.4362L29.8771 32.8646L29.9064 33.4652L29.697 33.4271L29.7284 33.5712L29.1712 33.5432L28.7209 32.9027L28.5806 33.1028L24.538 29.2394V29.0793L23.8154 28.0524L23.4195 28.6129L22.7262 28.4848L22.9755 29.6978L23.0907 29.8119V35.2748L22.8309 35.2267L22.9859 35.9834L22.567 36.4198L22.4518 36.2556L22.3659 36.3757L21.9931 35.9754L22.1481 35.2287ZM12.4502 28.4447H17.5945L13.9604 31.9118H10.4729L9.96183 31.4654L9.99325 30.8028L12.4502 28.4447ZM11.4678 25.9385H12.1947L11.9182 26.2288L11.4678 25.9385ZM9.98906 22.1992L9.95764 21.5346L10.4729 21.0902H13.9604L17.5945 24.5573H12.4586L9.98906 22.1992ZM15.1145 18.6501L15.6277 19.1405L15.2088 19.1605L15.1145 18.6501ZM23.0844 15.9597V16.6543L22.7807 16.3901L23.0844 15.9597ZM32.5372 24.5673H27.4076L31.0354 21.1002H34.525L35.0403 21.5446L35.0047 22.2092L32.5372 24.5673ZM33.5259 27.0735H32.7991L33.0755 26.7812L33.5259 27.0735ZM35.0047 30.8128L35.0403 31.4754L34.525 31.9218H31.0354L27.4076 28.4547H32.5372L35.0047 30.8128ZM29.8792 34.3619L29.366 33.8695L29.785 33.8515L29.8792 34.3619ZM22.213 36.6199L21.9093 37.0523V36.3557L22.213 36.6199ZM23.0383 37.0864L22.7367 36.66L23.0844 36.3557V37.1364L23.0383 37.0864ZM27.3322 38.7819H27.4244L27.3783 38.8279L27.3322 38.7819ZM28.1575 39.5726L27.5458 38.986L27.8077 38.7618L28.1575 38.7438V39.5726ZM28.1575 38.5176H28.0904L28.1575 38.4576V38.5176ZM27.6925 38.4956L27.0013 38.4636L24.5317 36.1055V31.1931L28.1575 34.6602V37.9952L27.6925 38.4956ZM30.7757 33.6253H30.7024L30.1745 33.5272L30.1997 33.0768L30.7757 33.6253ZM34.9984 31.9218L35.057 31.8557V31.9218H34.9984ZM36.1651 31.9218H35.3L35.3167 31.5875L35.5513 31.3353L36.1651 31.9218ZM35.3272 31.2172V31.1311L35.3733 31.1751L35.3272 31.2172ZM33.5531 25.9946L33.107 26.2808L32.7907 25.9485H33.6076L33.5531 25.9946ZM35.3293 21.8889V21.8029L35.3775 21.8449L35.3293 21.8889ZM36.1567 21.1002L35.543 21.6867L35.3084 21.4365L35.2916 21.1002H36.1567ZM35.0486 21.1643L34.9879 21.1002H35.0549L35.0486 21.1643ZM30.1913 19.9452L30.1704 19.5449L30.7045 19.4468L30.1913 19.9452ZM29.9316 18.6661L29.8289 19.1725L29.3577 19.1505L29.9525 18.59L29.9316 18.6661ZM28.1575 15.0088V18.3398L24.5317 21.8149V16.9065L27.0013 14.5464L27.6925 14.5144L28.1575 15.0088ZM28.1575 14.5584L28.0904 14.4984H28.1575V14.5584ZM28.1575 13.4435V14.2702L27.8077 14.2542L27.5458 14.028L28.1575 13.4435ZM27.3783 14.1881L27.4244 14.2342H27.3322L27.3783 14.1881ZM21.9575 15.9297L22.257 16.356L21.9093 16.6583V15.8756L21.9575 15.9297ZM17.6615 14.2282H17.5694L17.6154 14.1821L17.6615 14.2282ZM16.8362 13.4395L17.4479 14.024L17.1881 14.2502L16.8362 14.2662V13.4395ZM16.8362 14.4924H16.9033L16.8362 14.5524V14.4924ZM17.3012 14.5144L17.9946 14.5464L20.4641 16.9065V21.8149L16.8362 18.3398V15.0088L17.3012 14.5144ZM14.2201 19.3847H14.2892L14.8192 19.4848L14.7961 19.9332L14.2201 19.3847ZM9.99744 21.0902L9.9367 21.1543V21.0902H9.99744ZM8.83076 21.0902H9.69582L9.67906 21.4265L9.44238 21.6767L8.83076 21.0902ZM9.66859 21.7928V21.8789L9.62251 21.8349L9.66859 21.7928ZM11.4322 27.0195L11.8784 26.7312L12.1947 27.0655H11.3778L11.4322 27.0195ZM9.65602 31.1231V31.2092L9.60575 31.1671L9.65602 31.1231ZM8.83076 31.9138L9.44238 31.3273L9.67906 31.5795L9.69582 31.9138H8.83076ZM9.9367 31.8477L9.99744 31.9138H9.93251L9.9367 31.8477ZM14.7961 33.0668L14.815 33.4672L14.283 33.5652L14.7961 33.0668ZM15.0559 34.3459L15.1585 33.8395L15.6277 33.8615L15.0538 34.414L15.0559 34.3459ZM16.8362 37.9972V34.6602L20.4641 31.1931V36.0955L17.9946 38.4536L17.3012 38.4856L16.8362 37.9972ZM16.8362 38.4476L16.9033 38.5076H16.8362V38.4476ZM16.8362 39.5645V38.7358L17.1881 38.7538L17.4479 38.978L16.8362 39.5645ZM17.6154 38.8179L17.5694 38.7718H17.6615L17.6154 38.8179Z" fill="#D5A129"/>
<rect x="20.5" y="1.5" width="96" height="96" rx="48" fill="#00233B" stroke="#D6A007" stroke-width="3"/>
<path d="M67.7083 17.4167L35.625 49.5L45.25 59.125L86.9583 17.4167H67.7083Z" fill="#40C4FF"/>
<path d="M86.9583 46.2917L69.3125 63.9375L59.6875 54.3125L67.7083 46.2917H86.9583Z" fill="#40C4FF"/>
<path d="M59.686 54.3128L50.0615 63.9377L59.6864 73.5622L69.3109 63.9373L59.686 54.3128Z" fill="#03A9F4"/>
<path d="M86.9583 81.5833H67.7083L59.6875 73.5625L69.3125 63.9375L86.9583 81.5833Z" fill="#01579B"/>
<path d="M59.6875 73.5625L74.125 68.75L69.3125 63.9375L59.6875 73.5625Z" fill="#084994"/>
<rect x="102" y="63" width="20" height="20" rx="10" fill="#D6A007"/>
</svg>
