<svg width="80" height="80" viewBox="0 0 80 80" fill="none" xmlns="http://www.w3.org/2000/svg">
<rect x="1.5" y="1.5" width="77" height="77" rx="38.5" fill="#00233B" stroke="#D6A007" stroke-width="3"/>
<path d="M57.7082 20.2083H22.2915L25.4165 55.625L39.9998 59.7917L54.5832 55.625L57.7082 20.2083Z" fill="#E65100"/>
<path d="M40 23.3333V56.5625L51.6667 53.2292L54.2708 23.3333H40Z" fill="#FF6D00"/>
<path d="M40 41.0417V36.875H48.9583L48.2292 48.8542L40 51.5625V47.1875L44.2708 45.7292L44.5833 41.0417H40ZM49.2708 32.7083L49.5833 28.5417H40V32.7083H49.2708Z" fill="white"/>
<path d="M40.0002 47.1875V51.5625L31.771 48.8542L31.3543 43.125H35.521L35.7293 45.7292L40.0002 47.1875ZM34.896 32.7083H40.0002V28.5417H30.521L31.2502 41.0417H40.0002V36.875H35.2085L34.896 32.7083Z" fill="#EEEEEE"/>
</svg>
