<svg width="94" height="86" viewBox="0 0 94 86" fill="none" xmlns="http://www.w3.org/2000/svg">
<path d="M20.263 81.7402L21.6894 80.379V85.0251L22.4623 86L23.2352 85.0251V80.307L24.7307 81.7402L24.8983 85.0452L25.0533 82.0425L26.4629 83.3877L27.0578 83.4678L26.9761 82.8973L25.644 81.6341L28.9764 81.48L25.3046 81.3099L23.6122 79.6924L23.2373 79.6224V76.2974L23.8091 77.0201L24.2909 76.4195L24.3788 76.4976L24.2972 76.4115L24.5317 76.1173V75.6028L26.3603 77.3504L26.3854 77.8708L25.7361 78.5554L26.3917 77.9869L26.5237 80.5892L26.6682 77.7467L26.7227 77.7007L28.1617 79.0739L28.5471 79.1239L28.7146 79.3361L28.8508 79.166L29.0728 79.194L29.0351 78.9318L29.2697 78.6335V76.6898H29.3409L31.5486 78.6035L29.7158 76.6738L30.5997 76.6317L29.6341 76.5857L29.2697 76.2013V73.7212L29.6467 74.0835L30.03 74.1335V74.2496V74.1335L30.8218 74.2396L30.7108 73.4549L33.107 75.7449L32.9352 75.9932V78.2772L30.4636 80.8795L32.9352 78.7376V80.5392L33.2976 80.9996L33.662 80.5412V78.6315L35.9891 80.6493L33.662 78.1971V76.2734L37.0992 79.5583L38.3686 79.7265L38.1947 78.5114L34.7051 75.1784H36.8207L39.3865 77.4024L37.2836 75.1804H39.2776L39.7594 74.8321L39.2776 74.4858H37.3925L39.6337 72.1237L36.9107 74.4858H34.5208L34.2024 74.686L31.7476 72.3399L32.688 72.462L32.5791 71.7074H32.7006H32.577L32.5226 71.341L32.1456 70.9807H34.7303L35.1324 71.329L35.1806 72.2519L35.2225 71.4071L37.2438 73.1587L35.2413 71.0508V70.9807H37.2836L37.5936 70.7545L37.8679 70.7926L37.8365 70.5804L38.0167 70.4503L37.7946 70.2901L37.7402 69.9198L36.3033 68.5466L36.3536 68.4945L39.33 68.3564L36.607 68.2303L37.2019 67.6037L36.4855 68.2243L35.943 68.2003L34.1145 66.4527H34.6507L34.9565 66.2285L35.0486 66.3066L34.967 66.2225L35.5953 65.7601L34.9334 65.2837H38.3309L38.3895 65.5739L40.0798 67.1914L40.26 70.7005L40.4212 67.5177L41.7534 68.7888L42.3504 68.8669L42.2687 68.2964L40.859 66.9512L44.0009 66.805L40.5427 66.6429L39.1163 65.2837H43.9799L45 64.543L43.9799 63.8044H39.0409L40.5364 62.3731L43.9946 62.213L40.8527 62.0669L42.2624 60.7197L42.3441 60.1492L41.7471 60.2292L40.4254 61.4943L40.2641 58.3095L40.0777 61.8166L38.3874 63.4321L38.3141 63.7944H34.8413L35.5974 63.2459L34.969 62.7855L35.0507 62.6994L34.9586 62.7775L34.6444 62.5573H34.1103L35.9367 60.8157L36.4792 60.7897L37.1956 61.4163L36.6007 60.7877L39.3237 60.6616L36.3473 60.5235L36.297 60.4714L37.7339 59.0982L37.7884 58.7279L38.0104 58.5698L37.8302 58.4396L37.8617 58.2275L37.5873 58.2635L37.2836 58.0273H35.2497V57.9592L37.2521 55.8514L35.2309 57.6009L35.189 56.7562L35.1408 57.681L34.7386 58.0273H32.1456L32.5226 57.667L32.577 57.3006H32.6985H32.5791L32.688 56.544L31.8649 56.6521L34.2632 54.35L34.5208 54.5162H36.9128L39.6358 56.8763L37.3946 54.5162H39.2797L39.7615 54.1679L39.2797 53.8216H37.2836L39.397 51.5956L36.8311 53.8216H34.8203L38.2554 50.5347L38.4314 49.3216L37.1621 49.4897L33.6725 52.8227V50.8069L35.9996 48.3567L33.6725 50.3685V48.4628L33.3039 48.0044L32.9415 48.4628V50.2644L30.4699 48.1225L32.9415 50.7248V53.0088L33.151 53.3131L30.7045 55.6592L30.8322 54.7624L30.0405 54.8665V54.7504V54.8685L29.6572 54.9185L29.2802 55.2789V52.8087L29.6446 52.4243L30.6102 52.3803L29.7263 52.3383L31.5486 50.4065L29.3409 52.3202H29.2697V50.3725L29.0351 50.0763L29.0728 49.806L28.8508 49.836L28.7146 49.6659L28.5471 49.8661L28.1617 49.9181L26.7227 51.2913L26.6682 51.2453L26.5237 48.4008L26.3917 51.0031L25.7361 50.4366L26.3854 51.1212L26.3603 51.6396L24.5317 53.4092V52.8927L24.2972 52.6085L24.3788 52.5224L24.2909 52.6005L23.8091 52L23.3085 52.6085V49.3716L23.6122 49.3136L25.3046 47.6982L28.9764 47.528L25.644 47.3719L26.9761 46.1007L27.0578 45.5302L26.4629 45.6083L25.0533 46.9555L24.8983 43.9528L24.7307 47.2598L23.3085 48.621V43.9769L22.5335 43L21.7606 43.9769V48.691L20.263 47.2618L20.0954 43.9548L19.9425 46.9575L18.5329 45.6023L17.9359 45.5242L18.0197 46.0947L19.3518 47.3659L16.0194 47.522L19.6891 47.6982L21.3794 49.3136L21.7585 49.3856V52.7046L21.1825 51.9799L20.7028 52.5805L20.6128 52.5024L20.6945 52.5885L20.4641 52.8927V53.4092L18.6418 51.6577L18.6146 51.1392L19.2639 50.4546L18.6104 51.0211L18.4763 48.4188L18.3318 51.2613L18.2794 51.3093L16.8404 49.9361L16.4529 49.8841L16.2875 49.6839L16.1513 49.8541L15.9188 49.806L15.9565 50.0682L15.7219 50.3665V52.3102H15.6486L13.4472 50.4065L15.2904 52.3383L14.4044 52.3803L15.37 52.4243L15.7261 52.8087V55.2789L15.347 54.9185L14.9637 54.8685V54.7504V54.8665L14.1719 54.7624L14.285 55.5471L11.8763 53.2551L12.0501 53.0088V50.7228L14.5217 48.1205L12.0501 50.2624V48.4608L11.6857 48.0044L11.3212 48.4628V50.3685L8.99413 48.3507L11.3212 50.8069V52.7326L7.88401 49.4397L6.61469 49.2735L6.79063 50.4866L10.2802 53.8216H8.16887L5.59882 51.5956L7.70806 53.8216H5.71611L5.23646 54.1679L5.71611 54.5162H7.60124L5.35794 56.8763L8.0809 54.5162H10.4729L10.7934 54.316L13.2482 56.6561L12.3057 56.534L12.4167 57.2906H12.2973H12.4188L12.4711 57.657L12.8482 58.0173H10.2635L9.86129 57.671L9.81521 56.7461L9.77123 57.5909L7.74995 55.8514L9.75028 57.9592V58.0273H7.71644L7.40435 58.2535L7.13205 58.2134L7.16138 58.4256L6.98334 58.5557L7.19279 58.7139L7.24725 59.0842L8.68414 60.4574L8.63596 60.5095L5.65956 60.6476L8.38252 60.7737L7.80022 61.4163L8.51657 60.7937L9.05697 60.8197L10.8918 62.5573H10.3514L10.054 62.7795L9.96393 62.7014L10.0456 62.7875L9.41724 63.2479L10.054 63.7263H6.66705L6.60841 63.4341L4.91598 61.8166L4.73794 58.3075L4.57666 61.4923L3.24451 60.2152L2.64755 60.1351L2.72296 60.7117L4.13052 62.0588L0.988643 62.205L4.4468 62.3651L5.87111 63.7263H1.02006L0 64.467L1.02006 65.2056H5.9549L4.45937 66.6329L1.00121 66.795L4.14308 66.9412L2.72296 68.2883L2.64127 68.8589L3.23822 68.7808L4.57038 67.5097L4.73166 70.6925L4.9097 67.1834L6.60212 65.5659L6.67543 65.2076H10.1545L9.39839 65.7521L10.0268 66.2145L9.94508 66.2986L10.054 66.2205L10.3619 66.4447H10.8918L9.06116 68.1923L8.52076 68.2163L7.80441 67.5957L8.39509 68.2223L5.67213 68.3484L8.64853 68.4865L8.6967 68.5386L7.25982 69.9118L7.20536 70.2821L6.9959 70.4423L7.17394 70.5724L7.14462 70.7846L7.41691 70.7465L7.72901 70.9727H9.76285V71.0428L7.74995 73.1506L9.76913 71.3991L9.81312 72.2438L9.8592 71.321L10.2635 70.9727H12.8503L12.4711 71.333L12.4188 71.6994H12.2973H12.4167L12.3057 72.456L13.1267 72.3479L10.7305 74.652L10.4729 74.4858H8.0809L5.35794 72.1237L7.59914 74.4858H5.71402L5.23646 74.8281L5.71611 75.1744H7.70806L5.59882 77.4044L8.16887 75.1804H10.1839L6.73827 78.4653L6.56442 79.6784L7.83374 79.5123L11.3212 76.1773V78.1991L8.99413 80.6513L11.3212 78.6315V80.5372L11.6857 80.9956L12.0501 80.5352V78.7336L14.5217 80.8755L12.0501 78.2732V75.9932L11.8407 75.6869L14.2955 73.3408L14.1657 74.2396L14.9574 74.1335V74.2496V74.1335L15.3407 74.0835L15.7198 73.7212V76.1913L15.3533 76.5757L14.3877 76.6217L15.2737 76.6638L13.4409 78.5935L15.6465 76.6798H15.7198V78.6315L15.9544 78.9298L15.9188 79.186L16.1408 79.158L16.277 79.3281L16.4425 79.1159L16.83 79.0659L18.2689 77.6927L18.3213 77.7387L18.4658 80.5812L18.5999 77.9789L19.2534 78.5474L18.6041 77.8628L18.6313 77.3424L20.4599 75.5988V76.1093L20.6924 76.4035L20.6107 76.4896L20.7008 76.4115L21.1804 77.0121L21.6831 76.3815V79.6324L21.3773 79.6884L19.6891 81.3039L16.0173 81.474L19.3497 81.6281L18.0134 82.9013L17.9296 83.4718L18.5266 83.3917L19.9362 82.0465L20.0891 85.0492L20.263 81.7402ZM22.1481 73.2287L21.9009 73.2748V67.8219L22.0203 67.7078L22.2675 66.4948L21.5742 66.6209L21.1783 66.0604L20.4578 67.0873V67.2474L16.4152 71.1108L16.2749 70.9107L15.8246 71.5532L15.1962 71.5793L15.236 71.3791L15.0873 71.4051L15.1145 70.8726L15.7827 70.4443L15.5732 70.3081L19.6137 66.4467H19.7833L20.8558 65.7541L20.2693 65.3798L20.4054 64.7152L19.134 64.9514L19.0167 65.0655H13.3153L13.3655 64.8273L12.5738 64.9754L12.1151 64.5751L12.2889 64.465L12.1611 64.3829L12.5801 64.0266L13.3718 64.1727L13.3215 63.9365H19.0398L19.157 64.0486L20.4285 64.2848L20.286 63.6182L20.8725 63.2419L19.8001 62.5573H19.6304L15.59 58.6939L15.7994 58.5598L15.1313 58.1294L15.0998 57.5288L15.3093 57.5669L15.28 57.4247L15.8371 57.4508L16.2875 58.0893L16.4278 57.8892L20.4704 61.7526V61.9127L21.1909 62.9376L21.5868 62.3771L22.2822 62.5072L22.0329 61.2922L21.9156 61.1801V55.7272L22.1628 55.7733L22.0036 55.0106L22.4225 54.5722L22.5377 54.7364L22.6236 54.6163L22.9964 55.0166L22.8309 55.7733L23.0781 55.7272V61.1901L22.9608 61.3022L22.7136 62.5172L23.407 62.3871L23.8028 62.9476L24.5255 61.9227V61.7626L28.568 57.8992L28.7083 58.0993L29.1587 57.4608L29.7745 57.4308L29.7368 57.6309L29.8855 57.6029L29.8583 58.1354L29.188 58.5658L29.3975 58.6999L25.3549 62.5633H25.1873L24.1128 63.2539L24.7161 63.6182L24.5799 64.2808L25.8492 64.0446L25.9686 63.9325H31.6847L31.6366 64.1687L32.4283 64.0226L32.8849 64.4229L32.7132 64.533L32.8389 64.6151L32.4199 64.9714L31.6282 64.8193L31.6764 65.0575H25.9728L25.8534 64.9434L24.5841 64.7072L24.7203 65.3718L24.1317 65.7461L25.2062 66.4387H25.3738L29.4163 70.3001L29.2069 70.4362L29.8771 70.8646L29.9064 71.4652L29.697 71.4271L29.7284 71.5712L29.1712 71.5432L28.7209 70.9027L28.5806 71.1028L24.538 67.2394V67.0793L23.8154 66.0524L23.4195 66.6129L22.7262 66.4848L22.9755 67.6978L23.0907 67.8119V73.2748L22.8309 73.2267L22.9859 73.9834L22.567 74.4198L22.4518 74.2556L22.3659 74.3757L21.9931 73.9754L22.1481 73.2287ZM12.4502 66.4447H17.5945L13.9604 69.9118H10.4729L9.96183 69.4654L9.99325 68.8028L12.4502 66.4447ZM11.4678 63.9385H12.1947L11.9182 64.2288L11.4678 63.9385ZM9.98906 60.1992L9.95764 59.5346L10.4729 59.0902H13.9604L17.5945 62.5573H12.4586L9.98906 60.1992ZM15.1145 56.6501L15.6277 57.1405L15.2088 57.1605L15.1145 56.6501ZM23.0844 53.9597V54.6543L22.7807 54.3901L23.0844 53.9597ZM32.5372 62.5673H27.4076L31.0354 59.1002H34.525L35.0403 59.5446L35.0047 60.2092L32.5372 62.5673ZM33.5259 65.0735H32.7991L33.0755 64.7812L33.5259 65.0735ZM35.0047 68.8128L35.0403 69.4754L34.525 69.9218H31.0354L27.4076 66.4547H32.5372L35.0047 68.8128ZM29.8792 72.3619L29.366 71.8695L29.785 71.8515L29.8792 72.3619ZM22.213 74.6199L21.9093 75.0523V74.3557L22.213 74.6199ZM23.0383 75.0864L22.7367 74.66L23.0844 74.3557V75.1364L23.0383 75.0864ZM27.3322 76.7819H27.4244L27.3783 76.8279L27.3322 76.7819ZM28.1575 77.5726L27.5458 76.986L27.8077 76.7618L28.1575 76.7438V77.5726ZM28.1575 76.5176H28.0904L28.1575 76.4576V76.5176ZM27.6925 76.4956L27.0013 76.4636L24.5317 74.1055V69.1931L28.1575 72.6602V75.9952L27.6925 76.4956ZM30.7757 71.6253H30.7024L30.1745 71.5272L30.1997 71.0768L30.7757 71.6253ZM34.9984 69.9218L35.057 69.8557V69.9218H34.9984ZM36.1651 69.9218H35.3L35.3167 69.5875L35.5513 69.3353L36.1651 69.9218ZM35.3272 69.2172V69.1311L35.3733 69.1751L35.3272 69.2172ZM33.5531 63.9946L33.107 64.2808L32.7907 63.9485H33.6076L33.5531 63.9946ZM35.3293 59.8889V59.8029L35.3775 59.8449L35.3293 59.8889ZM36.1567 59.1002L35.543 59.6867L35.3084 59.4365L35.2916 59.1002H36.1567ZM35.0486 59.1643L34.9879 59.1002H35.0549L35.0486 59.1643ZM30.1913 57.9452L30.1704 57.5449L30.7045 57.4468L30.1913 57.9452ZM29.9316 56.6661L29.8289 57.1725L29.3577 57.1505L29.9525 56.59L29.9316 56.6661ZM28.1575 53.0088V56.3398L24.5317 59.8149V54.9065L27.0013 52.5464L27.6925 52.5144L28.1575 53.0088ZM28.1575 52.5584L28.0904 52.4984H28.1575V52.5584ZM28.1575 51.4435V52.2702L27.8077 52.2542L27.5458 52.028L28.1575 51.4435ZM27.3783 52.1881L27.4244 52.2342H27.3322L27.3783 52.1881ZM21.9575 53.9297L22.257 54.356L21.9093 54.6583V53.8756L21.9575 53.9297ZM17.6615 52.2282H17.5694L17.6154 52.1821L17.6615 52.2282ZM16.8362 51.4395L17.4479 52.024L17.1881 52.2502L16.8362 52.2662V51.4395ZM16.8362 52.4924H16.9033L16.8362 52.5524V52.4924ZM17.3012 52.5144L17.9946 52.5464L20.4641 54.9065V59.8149L16.8362 56.3398V53.0088L17.3012 52.5144ZM14.2201 57.3847H14.2892L14.8192 57.4848L14.7961 57.9332L14.2201 57.3847ZM9.99744 59.0902L9.9367 59.1543V59.0902H9.99744ZM8.83076 59.0902H9.69582L9.67906 59.4265L9.44238 59.6767L8.83076 59.0902ZM9.66859 59.7928V59.8789L9.62251 59.8349L9.66859 59.7928ZM11.4322 65.0195L11.8784 64.7312L12.1947 65.0655H11.3778L11.4322 65.0195ZM9.65602 69.1231V69.2092L9.60575 69.1671L9.65602 69.1231ZM8.83076 69.9138L9.44238 69.3273L9.67906 69.5795L9.69582 69.9138H8.83076ZM9.9367 69.8477L9.99744 69.9138H9.93251L9.9367 69.8477ZM14.7961 71.0668L14.815 71.4672L14.283 71.5652L14.7961 71.0668ZM15.0559 72.3459L15.1585 71.8395L15.6277 71.8615L15.0538 72.414L15.0559 72.3459ZM16.8362 75.9972V72.6602L20.4641 69.1931V74.0955L17.9946 76.4536L17.3012 76.4856L16.8362 75.9972ZM16.8362 76.4476L16.9033 76.5076H16.8362V76.4476ZM16.8362 77.5645V76.7358L17.1881 76.7538L17.4479 76.978L16.8362 77.5645ZM17.6154 76.8179L17.5694 76.7718H17.6615L17.6154 76.8179Z" fill="#D5A129"/>
<rect x="15.5" y="1.5" width="77" height="77" rx="38.5" fill="#00233B" stroke="#D6A007" stroke-width="3"/>
<path d="M71.7082 20.2083H36.2915L39.4165 55.625L53.9998 59.7917L68.5832 55.625L71.7082 20.2083Z" fill="#E65100"/>
<path d="M54 23.3333V56.5625L65.6667 53.2292L68.2708 23.3333H54Z" fill="#FF6D00"/>
<path d="M54 41.0417V36.875H62.9583L62.2292 48.8542L54 51.5625V47.1875L58.2708 45.7292L58.5833 41.0417H54V41.0417ZM63.2708 32.7083L63.5833 28.5417H54V32.7083H63.2708Z" fill="white"/>
<path d="M54.0002 47.1875V51.5625L45.771 48.8542L45.3543 43.125H49.521L49.7293 45.7292L54.0002 47.1875ZM48.896 32.7083H54.0002V28.5417H44.521L45.2502 41.0417H54.0002V36.875H49.2085L48.896 32.7083Z" fill="#EEEEEE"/>
</svg>
