<svg width="80" height="80" viewBox="0 0 80 80" fill="none" xmlns="http://www.w3.org/2000/svg">
<rect x="1.5" y="1.5" width="77" height="77" rx="38.5" fill="#00233B" stroke="#D6A007" stroke-width="3"/>
<path d="M22 60V24H58V60H22Z" fill="#FFD600"/>
<path d="M45.538 50.947C46.23 52.071 46.982 53.148 48.575 53.148C49.913 53.148 50.615 52.483 50.615 51.563C50.615 50.462 49.889 50.071 48.417 49.43L47.61 49.086C45.281 48.098 43.732 46.86 43.732 44.245C43.732 41.835 45.577 40.001 48.46 40.001C50.513 40.001 51.988 40.712 53.052 42.574L50.538 44.181C49.985 43.193 49.387 42.804 48.46 42.804C47.514 42.804 46.915 43.401 46.915 44.181C46.915 45.145 47.515 45.535 48.9 46.132L49.707 46.476C52.452 47.645 54 48.839 54 51.523C54 54.415 51.716 56 48.65 56C45.651 56 43.948 54.495 43 52.632L45.538 50.947ZM33.952 51.029C34.458 51.935 35.227 52.632 36.333 52.632C37.391 52.632 38 52.214 38 50.589V40H41.333V51.101C41.333 54.468 39.38 56 36.528 56C33.951 56 32.091 54.254 31.333 52.632L33.952 51.029Z" fill="#000001"/>
</svg>
