<svg width="80" height="80" viewBox="0 0 80 80" fill="none" xmlns="http://www.w3.org/2000/svg">
<rect x="1.5" y="1.5" width="77" height="77" rx="38.5" fill="#00233B" stroke="#D6A007" stroke-width="3"/>
<path d="M40.5072 63C39.9181 63 39.3341 62.8459 38.8179 62.5481L33.44 59.3609C32.6364 58.9111 33.0284 58.7519 33.2932 58.6604C34.3647 58.2856 34.5812 58.2003 35.7246 57.5501C35.8446 57.4813 36.0017 57.506 36.1248 57.5789L40.2568 60.0327C40.4056 60.1138 40.618 60.1138 40.7556 60.0327L56.8656 50.726C57.0144 50.6407 57.1119 50.4682 57.1119 50.2905V31.6864C57.1119 31.5005 57.0155 31.3351 56.8626 31.2427L40.7597 21.9432C40.6108 21.8549 40.4128 21.8549 40.2639 21.9432L24.1631 31.2417C24.0071 31.33 23.9076 31.5036 23.9076 31.6813V50.2864C23.9076 50.4641 24.004 50.6336 24.158 50.7178L28.5701 53.2681C30.9655 54.4667 32.4291 53.0545 32.4291 51.634V33.2723C32.4291 33.0103 32.6343 32.808 32.8971 32.808H34.9374C35.1919 32.808 35.4013 33.0093 35.4013 33.2723V51.6432C35.4013 54.8396 33.6596 56.6761 30.6309 56.6761C29.6991 56.6761 28.9652 56.6761 26.9167 55.6674L22.6903 53.2301C21.6456 52.6241 21 51.4933 21 50.2874V31.6823C21 30.4713 21.6456 29.3415 22.6893 28.7437L38.8168 19.4329C39.837 18.8557 41.1917 18.8557 42.2047 19.4329L58.3117 28.7478C59.3503 29.3487 60 30.4754 60 31.6864V50.2915C60 51.4984 59.3503 52.6241 58.3107 53.2301L42.2037 62.5399C41.6874 62.8387 41.1024 62.9918 40.5062 62.9918" fill="#21A366"/>
<path d="M44.8559 49.3565C37.9879 49.3565 36.5479 46.2035 36.5479 43.5595C36.5479 43.3085 36.7509 43.1075 37.0029 43.1075H39.0309C39.2549 43.1075 39.4439 43.2705 39.4789 43.4915C39.7849 45.5575 40.6969 46.5995 44.8499 46.5995C48.1579 46.5995 49.5648 45.8525 49.5648 44.0975C49.5648 43.0875 49.1639 42.3375 44.0249 41.8345C39.7259 41.4105 37.0699 40.4635 37.0699 37.0255C37.0699 33.8585 39.7419 31.9725 44.2169 31.9725C49.2429 31.9725 51.7339 33.7175 52.0479 37.4655C52.0599 37.5955 52.0128 37.7205 51.9258 37.8155C51.8398 37.9055 51.7179 37.9605 51.5919 37.9605H49.5529C49.3409 37.9605 49.1559 37.8115 49.1129 37.6065C48.6219 35.4335 47.4349 34.7385 44.2089 34.7385C40.5979 34.7385 40.1779 35.9955 40.1779 36.9385C40.1779 38.0815 40.6729 38.4155 45.5449 39.0605C50.3699 39.7005 52.6609 40.6045 52.6609 43.9955C52.6609 47.4135 49.8079 49.3745 44.8339 49.3745" fill="#21A366"/>
</svg>
