<svg width="100" height="117" viewBox="0 0 100 117" fill="none" xmlns="http://www.w3.org/2000/svg">
<path d="M38.263 38.7402L39.6894 37.379V42.0251L40.4623 43L41.2352 42.0251V37.307L42.7307 38.7402L42.8983 42.0452L43.0533 39.0425L44.4629 40.3877L45.0578 40.4678L44.9761 39.8973L43.644 38.6341L46.9764 38.48L43.3046 38.3099L41.6122 36.6924L41.2373 36.6224V33.2974L41.8091 34.0201L42.2909 33.4195L42.3788 33.4976L42.2972 33.4115L42.5317 33.1173V32.6028L44.3603 34.3504L44.3854 34.8708L43.7361 35.5554L44.3917 34.9869L44.5237 37.5892L44.6682 34.7467L44.7227 34.7007L46.1617 36.0739L46.5471 36.1239L46.7146 36.3361L46.8508 36.166L47.0728 36.194L47.0351 35.9318L47.2697 35.6335V33.6898H47.3409L49.5486 35.6035L47.7158 33.6738L48.5997 33.6317L47.6341 33.5857L47.2697 33.2013V30.7212L47.6467 31.0835L48.03 31.1335V31.2496V31.1335L48.8218 31.2396L48.7108 30.4549L51.107 32.7449L50.9352 32.9932V35.2772L48.4636 37.8795L50.9352 35.7376V37.5392L51.2976 37.9996L51.662 37.5412V35.6315L53.9891 37.6493L51.662 35.1971V33.2734L55.0992 36.5583L56.3686 36.7265L56.1947 35.5114L52.7051 32.1784H54.8207L57.3865 34.4024L55.2836 32.1804H57.2776L57.7594 31.8321L57.2776 31.4858H55.3925L57.6337 29.1237L54.9107 31.4858H52.5208L52.2024 31.686L49.7476 29.3399L50.688 29.462L50.5791 28.7074H50.7006H50.577L50.5226 28.341L50.1456 27.9807H52.7303L53.1324 28.329L53.1806 29.2519L53.2225 28.4071L55.2438 30.1587L53.2413 28.0508V27.9807H55.2836L55.5936 27.7545L55.8679 27.7926L55.8365 27.5804L56.0167 27.4503L55.7946 27.2901L55.7402 26.9198L54.3033 25.5466L54.3536 25.4945L57.33 25.3564L54.607 25.2303L55.2019 24.6037L54.4855 25.2243L53.943 25.2003L52.1145 23.4527H52.6507L52.9565 23.2285L53.0486 23.3066L52.967 23.2225L53.5953 22.7601L52.9334 22.2837H56.3309L56.3895 22.5739L58.0798 24.1914L58.26 27.7005L58.4212 24.5177L59.7534 25.7888L60.3504 25.8669L60.2687 25.2964L58.859 23.9512L62.0009 23.805L58.5427 23.6429L57.1163 22.2837H61.9799L63 21.543L61.9799 20.8044H57.0409L58.5364 19.3731L61.9946 19.213L58.8527 19.0669L60.2624 17.7197L60.3441 17.1492L59.7471 17.2292L58.4254 18.4943L58.2641 15.3095L58.0777 18.8166L56.3874 20.4321L56.3141 20.7944H52.8413L53.5974 20.2459L52.969 19.7855L53.0507 19.6994L52.9586 19.7775L52.6444 19.5573H52.1103L53.9367 17.8157L54.4792 17.7897L55.1956 18.4163L54.6007 17.7877L57.3237 17.6616L54.3473 17.5235L54.297 17.4714L55.7339 16.0982L55.7884 15.7279L56.0104 15.5698L55.8302 15.4396L55.8617 15.2275L55.5873 15.2635L55.2836 15.0273H53.2497V14.9592L55.2521 12.8514L53.2309 14.6009L53.189 13.7562L53.1408 14.681L52.7386 15.0273H50.1456L50.5226 14.667L50.577 14.3006H50.6985H50.5791L50.688 13.544L49.8649 13.6521L52.2632 11.35L52.5208 11.5162H54.9128L57.6358 13.8763L55.3946 11.5162H57.2797L57.7615 11.1679L57.2797 10.8216H55.2836L57.397 8.5956L54.8311 10.8216H52.8203L56.2554 7.53466L56.4314 6.32159L55.1621 6.48974L51.6725 9.82268V7.8069L53.9996 5.35673L51.6725 7.36851V5.46283L51.3039 5.00442L50.9415 5.46283V7.26442L48.4699 5.12253L50.9415 7.72483V10.0088L51.151 10.3131L48.7045 12.6592L48.8322 11.7624L48.0405 11.8665V11.7504V11.8685L47.6572 11.9185L47.2802 12.2789V9.80867L47.6446 9.42433L48.6102 9.38029L47.7263 9.33825L49.5486 7.40655L47.3409 9.32024H47.2697V7.37252L47.0351 7.07625L47.0728 6.80601L46.8508 6.83604L46.7146 6.66589L46.5471 6.86607L46.1617 6.91811L44.7227 8.29133L44.6682 8.24529L44.5237 5.40077L44.3917 8.00307L43.7361 7.43657L44.3854 8.12118L44.3603 8.63964L42.5317 10.4092V9.89274L42.2972 9.60849L42.3788 9.52242L42.2909 9.60048L41.8091 8.99995L41.3085 9.60849V6.37163L41.6122 6.31358L43.3046 4.69815L46.9764 4.528L43.644 4.37186L44.9761 3.10074L45.0578 2.53024L44.4629 2.60831L43.0533 3.9555L42.8983 0.952842L42.7307 4.25976L41.3085 5.62097V0.976863L40.5335 0L39.7606 0.976863V5.69103L38.263 4.26177L38.0954 0.954844L37.9425 3.9575L36.5329 2.6023L35.9359 2.52423L36.0197 3.09474L37.3518 4.36586L34.0194 4.522L37.6891 4.69815L39.3794 6.31358L39.7585 6.38564V9.70458L39.1825 8.97994L38.7028 9.58047L38.6128 9.5024L38.6945 9.58847L38.4641 9.89274V10.4092L36.6418 8.65765L36.6146 8.13919L37.2639 7.45459L36.6104 8.02109L36.4763 5.41879L36.3318 8.2613L36.2794 8.30934L34.8404 6.93613L34.4529 6.88408L34.2875 6.68391L34.1513 6.85406L33.9188 6.80601L33.9565 7.06825L33.7219 7.36651V9.31023H33.6486L31.4472 7.40655L33.2904 9.33825L32.4044 9.38029L33.37 9.42433L33.7261 9.80867V12.2789L33.347 11.9185L32.9637 11.8685V11.7504V11.8665L32.1719 11.7624L32.285 12.5471L29.8763 10.2551L30.0501 10.0088V7.72283L32.5217 5.12053L30.0501 7.26242V5.46083L29.6857 5.00442L29.3212 5.46283V7.36851L26.9941 5.35073L29.3212 7.8069V9.7326L25.884 6.43969L24.6147 6.27354L24.7906 7.48662L28.2802 10.8216H26.1689L23.5988 8.5956L25.7081 10.8216H23.7161L23.2365 11.1679L23.7161 11.5162H25.6012L23.3579 13.8763L26.0809 11.5162H28.4729L28.7934 11.316L31.2482 13.6561L30.3057 13.534L30.4167 14.2906H30.2973H30.4188L30.4711 14.657L30.8482 15.0173H28.2635L27.8613 14.671L27.8152 13.7461L27.7712 14.5909L25.75 12.8514L27.7503 14.9592V15.0273H25.7164L25.4043 15.2535L25.1321 15.2134L25.1614 15.4256L24.9833 15.5557L25.1928 15.7139L25.2473 16.0842L26.6841 17.4574L26.636 17.5095L23.6596 17.6476L26.3825 17.7737L25.8002 18.4163L26.5166 17.7937L27.057 17.8197L28.8918 19.5573H28.3514L28.054 19.7795L27.9639 19.7014L28.0456 19.7875L27.4172 20.2479L28.054 20.7263H24.6671L24.6084 20.4341L22.916 18.8166L22.7379 15.3075L22.5767 18.4923L21.2445 17.2152L20.6476 17.1351L20.723 17.7117L22.1305 19.0588L18.9886 19.205L22.4468 19.3651L23.8711 20.7263H19.0201L18 21.467L19.0201 22.2056H23.9549L22.4594 23.6329L19.0012 23.795L22.1431 23.9412L20.723 25.2883L20.6413 25.8589L21.2382 25.7808L22.5704 24.5097L22.7317 27.6925L22.9097 24.1834L24.6021 22.5659L24.6754 22.2076H28.1545L27.3984 22.7521L28.0268 23.2145L27.9451 23.2986L28.054 23.2205L28.3619 23.4447H28.8918L27.0612 25.1923L26.5208 25.2163L25.8044 24.5957L26.3951 25.2223L23.6721 25.3484L26.6485 25.4865L26.6967 25.5386L25.2598 26.9118L25.2054 27.2821L24.9959 27.4423L25.1739 27.5724L25.1446 27.7846L25.4169 27.7465L25.729 27.9727H27.7628V28.0428L25.75 30.1506L27.7691 28.3991L27.8131 29.2438L27.8592 28.321L28.2635 27.9727H30.8503L30.4711 28.333L30.4188 28.6994H30.2973H30.4167L30.3057 29.456L31.1267 29.3479L28.7305 31.652L28.4729 31.4858H26.0809L23.3579 29.1237L25.5991 31.4858H23.714L23.2365 31.8281L23.7161 32.1744H25.7081L23.5988 34.4044L26.1689 32.1804H28.1839L24.7383 35.4653L24.5644 36.6784L25.8337 36.5123L29.3212 33.1773V35.1991L26.9941 37.6513L29.3212 35.6315V37.5372L29.6857 37.9956L30.0501 37.5352V35.7336L32.5217 37.8755L30.0501 35.2732V32.9932L29.8407 32.6869L32.2955 30.3408L32.1657 31.2396L32.9574 31.1335V31.2496V31.1335L33.3407 31.0835L33.7198 30.7212V33.1913L33.3533 33.5757L32.3877 33.6217L33.2737 33.6638L31.4409 35.5935L33.6465 33.6798H33.7198V35.6315L33.9544 35.9298L33.9188 36.186L34.1408 36.158L34.277 36.3281L34.4425 36.1159L34.83 36.0659L36.2689 34.6927L36.3213 34.7387L36.4658 37.5812L36.5999 34.9789L37.2534 35.5474L36.6041 34.8628L36.6313 34.3424L38.4599 32.5988V33.1093L38.6924 33.4035L38.6107 33.4896L38.7008 33.4115L39.1804 34.0121L39.6831 33.3815V36.6324L39.3773 36.6884L37.6891 38.3039L34.0173 38.474L37.3497 38.6281L36.0134 39.9013L35.9296 40.4718L36.5266 40.3917L37.9362 39.0465L38.0891 42.0492L38.263 38.7402ZM40.1481 30.2287L39.9009 30.2748V24.8219L40.0203 24.7078L40.2675 23.4948L39.5742 23.6209L39.1783 23.0604L38.4578 24.0873V24.2474L34.4152 28.1108L34.2749 27.9107L33.8246 28.5532L33.1962 28.5793L33.236 28.3791L33.0873 28.4051L33.1145 27.8726L33.7827 27.4443L33.5732 27.3081L37.6137 23.4467H37.7833L38.8558 22.7541L38.2693 22.3798L38.4054 21.7152L37.134 21.9514L37.0167 22.0655H31.3153L31.3655 21.8273L30.5738 21.9754L30.1151 21.5751L30.2889 21.465L30.1611 21.3829L30.5801 21.0266L31.3718 21.1727L31.3215 20.9365H37.0398L37.157 21.0486L38.4285 21.2848L38.286 20.6182L38.8725 20.2419L37.8001 19.5573H37.6304L33.59 15.6939L33.7994 15.5598L33.1313 15.1294L33.0998 14.5288L33.3093 14.5669L33.28 14.4247L33.8371 14.4508L34.2875 15.0893L34.4278 14.8892L38.4704 18.7526V18.9127L39.1909 19.9376L39.5868 19.3771L40.2822 19.5072L40.0329 18.2922L39.9156 18.1801V12.7272L40.1628 12.7733L40.0036 12.0106L40.4225 11.5722L40.5377 11.7364L40.6236 11.6163L40.9964 12.0166L40.8309 12.7733L41.0781 12.7272V18.1901L40.9608 18.3022L40.7136 19.5172L41.407 19.3871L41.8028 19.9476L42.5255 18.9227V18.7626L46.568 14.8992L46.7083 15.0993L47.1587 14.4608L47.7745 14.4308L47.7368 14.6309L47.8855 14.6029L47.8583 15.1354L47.188 15.5658L47.3975 15.6999L43.3549 19.5633H43.1873L42.1128 20.2539L42.7161 20.6182L42.5799 21.2808L43.8492 21.0446L43.9686 20.9325H49.6847L49.6366 21.1687L50.4283 21.0226L50.8849 21.4229L50.7132 21.533L50.8389 21.6151L50.4199 21.9714L49.6282 21.8193L49.6764 22.0575H43.9728L43.8534 21.9434L42.5841 21.7072L42.7203 22.3718L42.1317 22.7461L43.2062 23.4387H43.3738L47.4163 27.3001L47.2069 27.4362L47.8771 27.8646L47.9064 28.4652L47.697 28.4271L47.7284 28.5712L47.1712 28.5432L46.7209 27.9027L46.5806 28.1028L42.538 24.2394V24.0793L41.8154 23.0524L41.4195 23.6129L40.7262 23.4848L40.9755 24.6978L41.0907 24.8119V30.2748L40.8309 30.2267L40.9859 30.9834L40.567 31.4198L40.4518 31.2556L40.3659 31.3757L39.9931 30.9754L40.1481 30.2287ZM30.4502 23.4447H35.5945L31.9604 26.9118H28.4729L27.9618 26.4654L27.9933 25.8028L30.4502 23.4447ZM29.4678 20.9385H30.1947L29.9182 21.2288L29.4678 20.9385ZM27.9891 17.1992L27.9576 16.5346L28.4729 16.0902H31.9604L35.5945 19.5573H30.4586L27.9891 17.1992ZM33.1145 13.6501L33.6277 14.1405L33.2088 14.1605L33.1145 13.6501ZM41.0844 10.9597V11.6543L40.7807 11.3901L41.0844 10.9597ZM50.5372 19.5673H45.4076L49.0354 16.1002H52.525L53.0403 16.5446L53.0047 17.2092L50.5372 19.5673ZM51.5259 22.0735H50.7991L51.0755 21.7812L51.5259 22.0735ZM53.0047 25.8128L53.0403 26.4754L52.525 26.9218H49.0354L45.4076 23.4547H50.5372L53.0047 25.8128ZM47.8792 29.3619L47.366 28.8695L47.785 28.8515L47.8792 29.3619ZM40.213 31.6199L39.9093 32.0523V31.3557L40.213 31.6199ZM41.0383 32.0864L40.7367 31.66L41.0844 31.3557V32.1364L41.0383 32.0864ZM45.3322 33.7819H45.4244L45.3783 33.8279L45.3322 33.7819ZM46.1575 34.5726L45.5458 33.986L45.8077 33.7618L46.1575 33.7438V34.5726ZM46.1575 33.5176H46.0904L46.1575 33.4576V33.5176ZM45.6925 33.4956L45.0013 33.4636L42.5317 31.1055V26.1931L46.1575 29.6602V32.9952L45.6925 33.4956ZM48.7757 28.6253H48.7024L48.1745 28.5272L48.1997 28.0768L48.7757 28.6253ZM52.9984 26.9218L53.057 26.8557V26.9218H52.9984ZM54.1651 26.9218H53.3L53.3167 26.5875L53.5513 26.3353L54.1651 26.9218ZM53.3272 26.2172V26.1311L53.3733 26.1751L53.3272 26.2172ZM51.5531 20.9946L51.107 21.2808L50.7907 20.9485H51.6076L51.5531 20.9946ZM53.3293 16.8889V16.8029L53.3775 16.8449L53.3293 16.8889ZM54.1567 16.1002L53.543 16.6867L53.3084 16.4365L53.2916 16.1002H54.1567ZM53.0486 16.1643L52.9879 16.1002H53.0549L53.0486 16.1643ZM48.1913 14.9452L48.1704 14.5449L48.7045 14.4468L48.1913 14.9452ZM47.9316 13.6661L47.8289 14.1725L47.3577 14.1505L47.9525 13.59L47.9316 13.6661ZM46.1575 10.0088V13.3398L42.5317 16.8149V11.9065L45.0013 9.54644L45.6925 9.51441L46.1575 10.0088ZM46.1575 9.55845L46.0904 9.49839H46.1575V9.55845ZM46.1575 8.44346V9.27019L45.8077 9.25418L45.5458 9.02798L46.1575 8.44346ZM45.3783 9.18812L45.4244 9.23416H45.3322L45.3783 9.18812ZM39.9575 10.9297L40.257 11.356L39.9093 11.6583V10.8756L39.9575 10.9297ZM35.6615 9.22816H35.5694L35.6154 9.18211L35.6615 9.22816ZM34.8362 8.43946L35.4479 9.02398L35.1881 9.25017L34.8362 9.26619V8.43946ZM34.8362 9.49239H34.9033L34.8362 9.55244V9.49239ZM35.3012 9.51441L35.9946 9.54644L38.4641 11.9065V16.8149L34.8362 13.3398V10.0088L35.3012 9.51441ZM32.2201 14.3847H32.2892L32.8192 14.4848L32.7961 14.9332L32.2201 14.3847ZM27.9974 16.0902L27.9367 16.1543V16.0902H27.9974ZM26.8308 16.0902H27.6958L27.6791 16.4265L27.4424 16.6767L26.8308 16.0902ZM27.6686 16.7928V16.8789L27.6225 16.8349L27.6686 16.7928ZM29.4322 22.0195L29.8784 21.7312L30.1947 22.0655H29.3778L29.4322 22.0195ZM27.656 26.1231V26.2092L27.6058 26.1671L27.656 26.1231ZM26.8308 26.9138L27.4424 26.3273L27.6791 26.5795L27.6958 26.9138H26.8308ZM27.9367 26.8477L27.9974 26.9138H27.9325L27.9367 26.8477ZM32.7961 28.0668L32.815 28.4672L32.283 28.5652L32.7961 28.0668ZM33.0559 29.3459L33.1585 28.8395L33.6277 28.8615L33.0538 29.414L33.0559 29.3459ZM34.8362 32.9972V29.6602L38.4641 26.1931V31.0955L35.9946 33.4536L35.3012 33.4856L34.8362 32.9972ZM34.8362 33.4476L34.9033 33.5076H34.8362V33.4476ZM34.8362 34.5645V33.7358L35.1881 33.7538L35.4479 33.978L34.8362 34.5645ZM35.6154 33.8179L35.5694 33.7718H35.6615L35.6154 33.8179Z" fill="#D5A129"/>
<circle cx="50" cy="67" r="48.5" fill="#00233B" stroke="#D6A007" stroke-width="3"/>
<path d="M51.0002 81.5833C32.1877 81.5833 17.4585 75.1667 17.4585 67C17.4585 58.8333 32.1877 52.4167 51.0002 52.4167C69.8127 52.4167 84.5418 58.8333 84.5418 67C84.5418 75.1667 69.8127 81.5833 51.0002 81.5833ZM51.0002 55.3333C32.6252 55.3333 20.3752 61.3125 20.3752 67C20.3752 72.6875 32.6252 78.6667 51.0002 78.6667C69.3752 78.6667 81.6252 72.6875 81.6252 67C81.6252 61.3125 69.3752 55.3333 51.0002 55.3333Z" fill="#80DEEA"/>
<path d="M38.0211 97.0417C36.5627 97.0417 35.396 96.75 34.2294 96.0208C27.0836 91.9375 28.9794 76.0417 38.3127 59.7083C42.6877 52.125 48.0835 45.7083 53.3335 41.625C59.021 37.25 64.1252 35.9375 67.6252 37.9792C71.271 40.0208 72.5835 45.125 71.7085 52.2708C70.8335 58.9792 67.9169 66.8542 63.5419 74.4375C59.1669 82.0208 53.771 88.4375 48.521 92.5208C44.7294 95.4375 41.0836 97.0417 38.0211 97.0417ZM63.9794 39.875C61.646 39.875 58.5835 41.1875 55.2294 43.8125C50.271 47.75 45.1669 53.875 40.9377 61.1667C31.7502 77.0625 30.8752 90.7708 35.6877 93.5417C38.1669 95 42.2502 93.6875 46.7711 90.1875C51.7294 86.25 56.8335 80.125 61.0627 72.8333C65.2919 65.5417 68.0627 58.1042 68.9377 51.8333C69.6669 46 68.7919 41.9167 66.3127 40.4583C65.5835 40.1667 64.8544 39.875 63.9794 39.875Z" fill="#80DEEA"/>
<path d="M64.125 97.0417C56.8333 97.0417 46.3333 88.1458 38.4583 74.2917C28.9791 57.9583 27.0833 42.0625 34.2291 37.9792C41.375 33.8958 54.2083 43.375 63.6875 59.7083C68.0625 67.2917 70.9791 75.1667 71.8541 81.875C72.875 89.0208 71.4166 93.9792 67.7708 96.1667C66.6041 96.75 65.4375 97.0417 64.125 97.0417ZM35.6875 40.4583C30.875 43.2292 31.75 56.9375 40.9375 72.8333C50.125 88.7292 61.5 96.3125 66.3125 93.5417C68.7916 92.0833 69.6666 88 68.9375 82.1667C68.0625 75.8958 65.2916 68.4583 61.0625 61.1667C51.875 45.2708 40.5 37.6875 35.6875 40.4583Z" fill="#80DEEA"/>
<path d="M51.3333 75.6667C55.9357 75.6667 59.6667 71.9357 59.6667 67.3333C59.6667 62.731 55.9357 59 51.3333 59C46.731 59 43 62.731 43 67.3333C43 71.9357 46.731 75.6667 51.3333 75.6667Z" fill="#80DEEA"/>
</svg>
