<svg width="100" height="100" viewBox="0 0 100 100" fill="none" xmlns="http://www.w3.org/2000/svg">
<circle cx="50" cy="50" r="48.5" fill="#00233B" stroke="#D6A007" stroke-width="3"/>
<path d="M51.0002 64.5833C32.1877 64.5833 17.4585 58.1667 17.4585 50C17.4585 41.8333 32.1877 35.4167 51.0002 35.4167C69.8127 35.4167 84.5418 41.8333 84.5418 50C84.5418 58.1667 69.8127 64.5833 51.0002 64.5833ZM51.0002 38.3333C32.6252 38.3333 20.3752 44.3125 20.3752 50C20.3752 55.6875 32.6252 61.6667 51.0002 61.6667C69.3752 61.6667 81.6252 55.6875 81.6252 50C81.6252 44.3125 69.3752 38.3333 51.0002 38.3333Z" fill="#80DEEA"/>
<path d="M38.0211 80.0417C36.5627 80.0417 35.396 79.75 34.2294 79.0208C27.0836 74.9375 28.9794 59.0417 38.3127 42.7083C42.6877 35.125 48.0835 28.7083 53.3335 24.625C59.021 20.25 64.1252 18.9375 67.6252 20.9792C71.271 23.0208 72.5835 28.125 71.7085 35.2708C70.8335 41.9792 67.9169 49.8542 63.5419 57.4375C59.1669 65.0208 53.771 71.4375 48.521 75.5208C44.7294 78.4375 41.0836 80.0417 38.0211 80.0417ZM63.9794 22.875C61.646 22.875 58.5835 24.1875 55.2294 26.8125C50.271 30.75 45.1669 36.875 40.9377 44.1667C31.7502 60.0625 30.8752 73.7708 35.6877 76.5417C38.1669 78 42.2502 76.6875 46.771 73.1875C51.7294 69.25 56.8335 63.125 61.0627 55.8333C65.2919 48.5417 68.0627 41.1042 68.9377 34.8333C69.6669 29 68.7919 24.9167 66.3127 23.4583C65.5835 23.1667 64.8544 22.875 63.9794 22.875Z" fill="#80DEEA"/>
<path d="M64.125 80.0417C56.8333 80.0417 46.3333 71.1458 38.4583 57.2917C28.9791 40.9583 27.0833 25.0625 34.2291 20.9792C41.375 16.8958 54.2083 26.375 63.6875 42.7083C68.0625 50.2917 70.9791 58.1667 71.8541 64.875C72.875 72.0208 71.4166 76.9792 67.7708 79.1667C66.6041 79.75 65.4375 80.0417 64.125 80.0417ZM35.6875 23.4583C30.875 26.2292 31.75 39.9375 40.9375 55.8333C50.125 71.7292 61.5 79.3125 66.3125 76.5417C68.7916 75.0833 69.6666 71 68.9375 65.1667C68.0625 58.8958 65.2916 51.4583 61.0625 44.1667C51.875 28.2708 40.5 20.6875 35.6875 23.4583Z" fill="#80DEEA"/>
<path d="M51.3333 58.6667C55.9357 58.6667 59.6667 54.9357 59.6667 50.3333C59.6667 45.731 55.9357 42 51.3333 42C46.731 42 43 45.731 43 50.3333C43 54.9357 46.731 58.6667 51.3333 58.6667Z" fill="#80DEEA"/>
</svg>
